<svg width="175" height="139" xmlns="http://www.w3.org/2000/svg" xmlns:xlink="http://www.w3.org/1999/xlink" overflow="hidden"><defs><clipPath id="clip0"><rect x="154" y="347" width="175" height="139"/></clipPath></defs><g clip-path="url(#clip0)" transform="translate(-154 -347)"><path d="M186.241 484.805C216.467 480.604 246.958 479.133 276.882 480.45 281.659 480.661 286.428 480.953 291.188 481.303 332.12 448.894 327.875 408 327.875 408 299.493 450.056 220.659 476.988 157 473.005 165.332 479.946 172.423 483.302 178.184 486 180.87 485.586 183.556 485.179 186.241 484.805" fill="#7F7F7F" fill-rule="evenodd"/><path d="M215 466C233.706 442.446 250.174 391.435 217.54 352 217.54 352 289.127 367.336 287.987 437.724 266.082 412.568 216.756 465.631 215 466" fill="#7F7F7F" fill-rule="evenodd"/><path d="M184 464C193.135 447.029 211.146 403.123 185.534 381 185.534 381 227.284 403.139 235 448.472 212.056 433.493 193.429 453.947 184 464" fill="#7F7F7F" fill-rule="evenodd"/><path d="M184.241 480.821C214.467 476.673 244.958 475.221 274.882 476.521 279.659 476.729 284.428 477.018 289.188 477.363 330.12 445.369 325.875 405 325.875 405 297.493 446.517 218.659 473.103 155 469.172 163.332 476.023 170.423 479.337 176.184 482 178.87 481.591 181.556 481.19 184.241 480.821" fill="#A1252D" fill-rule="evenodd"/><path d="M184 461C193.135 444.029 211.146 400.123 185.534 378 185.534 378 227.284 400.139 235 445.472 212.056 430.493 193.429 450.947 184 461" fill="#B19013" fill-rule="evenodd"/><path d="M215 462C233.706 438.446 250.174 387.435 217.54 348 217.54 348 289.127 363.336 287.987 433.724 266.082 408.568 216.756 461.631 215 462" fill="#B19013" fill-rule="evenodd"/></g></svg>